<svg width="24" height="24" viewBox="0 0 24 24" fill="none" xmlns="http://www.w3.org/2000/svg">
<path fill-rule="evenodd" clip-rule="evenodd" d="M1.49927 12.0005C1.49927 11.8016 1.57828 11.6108 1.71894 11.4702C1.85959 11.3295 2.05035 11.2505 2.24927 11.2505L19.9388 11.2505L15.2183 6.53152C15.0774 6.39069 14.9983 6.19968 14.9983 6.00052C14.9983 5.80135 15.0774 5.61035 15.2183 5.46952C15.3591 5.32869 15.5501 5.24957 15.7493 5.24957C15.9484 5.24957 16.1394 5.32869 16.2803 5.46952L22.2803 11.4695C22.3501 11.5392 22.4055 11.6219 22.4433 11.7131C22.4811 11.8042 22.5006 11.9019 22.5006 12.0005C22.5006 12.0992 22.4811 12.1968 22.4433 12.288C22.4055 12.3791 22.3501 12.4618 22.2803 12.5315L16.2803 18.5315C16.1394 18.6723 15.9484 18.7515 15.7493 18.7515C15.5501 18.7515 15.3591 18.6723 15.2183 18.5315C15.0774 18.3907 14.9983 18.1997 14.9983 18.0005C14.9983 17.8014 15.0774 17.6103 15.2183 17.4695L19.9388 12.7505L2.24927 12.7505C2.05035 12.7505 1.85959 12.6715 1.71894 12.5308C1.57828 12.3902 1.49927 12.1994 1.49927 12.0005Z" fill="#141414" stroke="#141414" stroke-width="0.5"/>
</svg>
