<svg width="420" height="420" viewBox="0 0 420 420" fill="none" xmlns="http://www.w3.org/2000/svg">
<path d="M111.562 315.5H111.563C125.615 315.484 139.086 309.895 149.022 299.959C158.958 290.023 164.547 276.552 164.562 262.501V262.5V249.375V248.875H164.062H65.6256C58.7984 248.867 52.2531 246.152 47.4256 241.324C42.5982 236.497 39.8827 229.952 39.875 223.125V118.125C39.8827 111.298 42.5982 104.753 47.4256 99.9256C52.2531 95.0982 58.7983 92.3827 65.6253 92.375H164.062C170.889 92.3827 177.434 95.0982 182.262 99.9256C187.089 104.753 189.805 111.298 189.812 118.126V262.499C189.789 283.246 181.537 303.135 166.868 317.805C152.198 332.475 132.308 340.727 111.562 340.75C108.214 340.75 105.003 339.42 102.635 337.052C100.268 334.685 98.9375 331.473 98.9375 328.125C98.9375 324.777 100.268 321.565 102.635 319.198C105.003 316.83 108.214 315.5 111.562 315.5ZM354.875 249.375V248.875H354.375H255.938C249.111 248.867 242.566 246.152 237.738 241.324C232.911 236.497 230.195 229.952 230.188 223.124V118.126C230.195 111.298 232.911 104.753 237.738 99.9256C242.566 95.0982 249.111 92.3827 255.938 92.375H354.375C361.202 92.3827 367.747 95.0982 372.574 99.9256C377.402 104.753 380.117 111.298 380.125 118.126V262.499C380.102 283.246 371.85 303.135 357.18 317.805C342.51 332.475 322.621 340.727 301.874 340.75C298.526 340.75 295.315 339.42 292.948 337.052C290.58 334.685 289.25 331.473 289.25 328.125C289.25 324.777 290.58 321.565 292.948 319.198C295.315 316.83 298.527 315.5 301.875 315.5H301.876C315.927 315.484 329.398 309.895 339.334 299.959C349.27 290.023 354.859 276.552 354.875 262.501V262.5V249.375Z" stroke="white"/>
</svg>
