<svg width="24" height="24" viewBox="0 0 24 24" fill="none" xmlns="http://www.w3.org/2000/svg">
<path d="M6.89932 2.17365C5.36309 2.97195 4.0353 4.11911 3.02239 5.52313C2.00948 6.92716 1.33964 8.54899 1.06659 10.2586H1.7086C5.84848 10.1627 9.09397 9.80401 11.7447 8.99227C10.5935 6.95111 9.18842 4.94832 7.50296 2.91159L7.50148 2.91012L6.89932 2.17365Z" fill="#111111"/>
<path d="M0.933829 11.7344L0.930878 12.0001C0.930878 14.977 2.10569 17.6793 4.01697 19.6688L4.25459 19.1906C4.26779 19.1642 4.28258 19.1386 4.29886 19.1139C6.74589 15.3917 9.51467 13.1779 12.6111 12.1846C12.8207 12.1167 13.0332 12.0547 13.2457 11.9986C12.9978 11.4303 12.7335 10.8692 12.4532 10.3161C9.55304 11.2503 6.06698 11.6341 1.73376 11.733H0.935305L0.933829 11.7344Z" fill="#111111"/>
<path d="M5.15192 20.6974C7.10203 22.2373 9.51526 23.0731 12.0001 23.0692C13.318 23.0692 14.5829 22.839 15.7533 22.4168V21.3542C15.3931 18.4984 14.76 15.8786 13.808 13.3785C13.5571 13.4405 13.3077 13.5113 13.0612 13.5895C10.3722 14.4529 7.8587 16.3982 5.55631 19.8886L5.15339 20.6974H5.15192Z" fill="#111111"/>
<path d="M17.2291 21.7586C18.6558 20.993 19.8975 19.9242 20.867 18.6274C21.8364 17.3306 22.51 15.8372 22.8405 14.2522L22.0066 13.8758C19.6068 13.1703 17.3708 12.8811 15.2869 13.1157C16.2285 15.6543 16.8616 18.3197 17.2232 21.2154C17.2277 21.2449 17.2291 21.2745 17.2291 21.3069V21.7586Z" fill="#111111"/>
<path d="M23.0456 12.7262C23.2404 9.82707 22.283 6.96822 20.3816 4.77112L19.9432 5.25669C18.2165 7.35688 16.2447 8.81359 13.8478 9.80539C14.1607 10.4312 14.4529 11.0614 14.723 11.7004C17.1907 11.3462 19.7853 11.6798 22.4729 12.4753C22.5057 12.4848 22.5377 12.4967 22.5689 12.5107L23.0456 12.7262Z" fill="#111111"/>
<path d="M19.344 3.71734C17.321 1.91862 14.707 0.926823 12 0.930859C10.7041 0.930859 9.46144 1.15224 8.30582 1.56254L8.64232 1.97284C10.4429 4.14683 11.9365 6.29573 13.1556 8.49333C15.4329 7.57385 17.2379 6.22931 18.8142 4.30623C18.8213 4.29719 18.8287 4.28833 18.8363 4.27966L19.344 3.71882V3.71734Z" fill="#111111"/>
</svg>
