<svg width="24" height="24" viewBox="0 0 24 24" fill="none" xmlns="http://www.w3.org/2000/svg">
<g clip-path="url(#clip0)">
<path d="M21.6 19.0715H19.2V8.75897L12 13.1786L4.8 8.75897V19.0715H2.4V4.92862H3.84L12 9.93755L20.16 4.92862H21.6V19.0715ZM21.6 2.57147H2.4C1.068 2.57147 0 3.6204 0 4.92862V19.0715C0 19.6966 0.252856 20.2962 0.702944 20.7382C1.15303 21.1803 1.76348 21.4286 2.4 21.4286H21.6C22.2365 21.4286 22.847 21.1803 23.2971 20.7382C23.7471 20.2962 24 19.6966 24 19.0715V4.92862C24 4.30346 23.7471 3.70391 23.2971 3.26186C22.847 2.81981 22.2365 2.57147 21.6 2.57147Z" fill="#6661E5"/>
</g>
<defs>
<clipPath id="clip0">
<rect width="24" height="24" fill="white"/>
</clipPath>
</defs>
</svg>
