<svg width="160" height="160" viewBox="0 0 160 160" fill="none" xmlns="http://www.w3.org/2000/svg">
<circle opacity="0.14" cx="80" cy="80" r="80" fill="#6661E5"/>
<path d="M47.7778 92.822C45.7049 95.6381 44.7402 99.1183 45.0676 102.6C45.395 106.081 46.9914 109.321 49.553 111.701C52.1145 114.081 55.4621 115.436 58.9581 115.508C62.4541 115.579 65.8543 114.362 68.5111 112.089C63.558 111.236 58.9601 108.961 55.2784 105.539C51.5968 102.118 48.9905 97.6994 47.7778 92.822Z" fill="#6661E5"/>
<path d="M57.0667 72.2888C53.4245 76.3178 51.4561 81.5841 51.5628 87.0143C51.6696 92.4444 53.8434 97.6294 57.6411 101.512C61.4387 105.395 66.5743 107.683 72.0008 107.91C77.4272 108.137 82.7359 106.285 86.8444 102.733C78.96 102.339 71.5143 98.9854 65.9943 93.3418C60.4743 87.6982 57.2862 80.1801 57.0667 72.2888Z" fill="#6661E5"/>
<path d="M88.4 44.4443C93.724 44.4444 98.9287 46.0223 103.356 48.9788C107.784 51.9354 111.236 56.1379 113.277 61.0554C115.317 65.9729 115.854 71.3849 114.821 76.6076C113.787 81.8304 111.228 86.6295 107.468 90.3989C103.708 94.1682 98.9153 96.7386 93.6951 97.7853C88.475 98.8321 83.0617 98.3082 78.1391 96.2799C73.2166 94.2516 69.0056 90.8099 66.0381 86.3895C63.0706 81.9691 61.4798 76.7684 61.4666 71.4443C61.4579 67.9018 62.148 64.3923 63.4976 61.1169C64.8472 57.8415 66.8298 54.8645 69.3316 52.3565C71.8335 49.8484 74.8056 47.8586 78.0776 46.5009C81.3497 45.1432 84.8574 44.4443 88.4 44.4443Z" fill="#6661E5"/>
</svg>
