<svg width="40" height="40" viewBox="0 0 40 40" fill="none" xmlns="http://www.w3.org/2000/svg">
<circle opacity="0.16" cx="20" cy="20" r="20" fill="#069CCB"/>
<path d="M30 28.4999C30 29.3283 29.3284 29.9999 28.5 29.9999H27.5013C26.673 29.9999 26.0015 29.3285 26.0013 28.5002L26 22.5036C26 20.9545 25.6261 19.9999 23.5 19.9999C21.3432 19.9999 21 20.6487 21 22.3913L21.0013 28.4996C21.0015 29.3281 20.3299 29.9999 19.5013 29.9999H18.5C17.6716 29.9999 17 29.3283 17 28.4999V17.5C17 16.6716 17.6716 16 18.5 16H19.4937C20.3149 16 20.9834 16.6603 20.9936 17.4814L21 17.9999C21.3978 17.3185 21.8093 16.8803 22.5 16.5002C23.1907 16.1202 24.2125 15.9706 25 15.9999C29.197 15.9999 30 18.0737 30 21.6714L30 28.4999ZM14.9919 28.4919C14.9964 29.3235 14.3235 30 13.4919 30H11.5C10.6716 30 10 29.3284 10 28.5L10 17.4996C10 16.6712 10.6717 15.9996 11.5002 15.9996L13.4323 15.9998C14.2575 15.9999 14.9277 16.6665 14.9321 17.4917L14.9919 28.4919Z" fill="#069CCB"/>
<path d="M10 12.5004C10.0002 13.8811 11.1197 15.0002 12.5005 15C13.1635 14.9998 13.7993 14.7363 14.2681 14.2674C14.7368 13.7985 15.0001 13.1625 15 12.4995C14.9998 11.1188 13.8803 9.99966 12.4995 10C11.1188 10.0002 9.99977 11.1197 10 12.5004Z" fill="#069CCB"/>
</svg>
