<svg width="40" height="40" viewBox="0 0 40 40" fill="none" xmlns="http://www.w3.org/2000/svg">
<circle opacity="0.16" cx="20" cy="20" r="20" fill="#EA4C89"/>
<path d="M19.9999 10C22.2118 9.99671 24.3549 10.7295 26.0964 12.0721C26.2868 12.2189 26.3049 12.4962 26.1435 12.6744V12.6744L26.1407 12.6776C26.1314 12.6882 26.1224 12.699 26.1136 12.7101C24.9236 14.1616 23.5935 15.248 21.9931 16.053C21.5389 16.2815 20.9957 16.0916 20.7346 15.6553C19.7081 13.9396 18.4977 12.2501 17.0864 10.546V10.546C17.0503 10.502 17.0702 10.4356 17.1246 10.4192C18.0348 10.1459 18.9997 10 19.9999 10Z" fill="#EA4C89"/>
<path d="M15.6412 11.7496L15.6431 11.7515C16.8124 13.1652 17.8337 14.5596 18.7183 15.9632C19.0651 16.5135 18.7742 17.2318 18.1389 17.3708C16.0194 17.8343 13.5092 18.0591 10.4613 18.1299V18.1299C10.3125 18.1299 10.2003 17.9944 10.2324 17.8491C10.5261 16.5175 11.0893 15.2578 11.8895 14.1485C12.6829 13.0487 13.6901 12.1234 14.8485 11.4267C15.0547 11.3027 15.3188 11.3552 15.4711 11.5415L15.6412 11.7496Z" fill="#EA4C89"/>
<path d="M18.0117 21.0451C16.0618 22.2034 14.2759 23.9772 12.65 26.4504C12.6293 26.4818 12.6103 26.5148 12.5935 26.5485V26.5485C12.5672 26.6014 12.4958 26.611 12.4571 26.5664C11.0279 24.9257 10.1253 22.8149 10.0121 20.4962C9.99896 20.2273 10.2183 20.0089 10.4875 20.0089V20.0089L10.4933 20.0088C14.1787 19.9247 17.2229 19.6186 19.8005 18.8938C20.0828 18.8144 20.3849 18.9424 20.511 19.2072C20.5627 19.3157 20.6137 19.4245 20.664 19.5336C20.7363 19.6903 20.6513 19.8737 20.487 19.9269V19.9269C19.6343 20.2004 18.8093 20.5713 18.0117 21.0451Z" fill="#EA4C89"/>
<path d="M23.2206 29.1121C23.2206 29.3262 23.0847 29.5177 22.8797 29.5793C21.9686 29.8528 21.0009 30 19.9992 30C17.9633 30.0032 15.9806 29.3823 14.315 28.2288C14.1172 28.0917 14.0566 27.8293 14.1639 27.614L14.2518 27.4376C16.3587 24.248 18.6411 22.4941 21.0608 21.717V21.717C21.3169 21.6357 21.588 21.7758 21.6775 22.0292C22.4164 24.1211 22.9206 26.3125 23.2206 28.6835V29.1121Z" fill="#EA4C89"/>
<path d="M28.0097 25.9874C27.2403 27.0166 26.2812 27.8868 25.1856 28.552C25.1479 28.5749 25.0994 28.5481 25.0931 28.5043V28.5043C24.8283 26.3851 24.4073 24.3962 23.8131 22.4917C23.6173 21.8643 24.0434 21.2042 24.7005 21.2197C26.1135 21.2531 27.6052 21.5169 29.1817 21.9792L29.3752 22.0665C29.5924 22.1645 29.7115 22.4025 29.6487 22.6323C29.318 23.8418 28.7626 24.9802 28.0097 25.9874Z" fill="#EA4C89"/>
<path d="M30.0001 20.0463C29.9994 20.1593 29.8844 20.2263 29.7759 20.1945V20.1945C27.5527 19.5364 25.3846 19.2124 23.2983 19.3783C22.9324 19.4074 22.5831 19.2101 22.4308 18.8761V18.8761C22.236 18.4491 22.4231 17.9423 22.8423 17.7312C24.6453 16.8235 26.1829 15.5852 27.5536 13.9192V13.9192C27.6613 13.7998 27.8504 13.8044 27.9482 13.9321C29.2912 15.686 30.0132 17.8375 30.0001 20.0463Z" fill="#EA4C89"/>
</svg>
