<svg width="160" height="160" viewBox="0 0 160 160" fill="none" xmlns="http://www.w3.org/2000/svg">
<circle opacity="0.14" cx="80" cy="80" r="80" fill="#6661E5"/>
<path d="M125 54.5V73.625C125 75.9625 122.75 77.875 120 77.875H71.65C68.9 77.875 66.65 75.9625 66.65 73.625V54.5C66.65 52.1625 68.9 50.25 71.65 50.25H120C122.75 50.25 125 52.1625 125 54.5ZM93.35 105.5V86.375C93.35 84.0375 91.1 82.125 88.35 82.125H71.7C68.95 82.125 66.7 84.0375 66.7 86.375V105.5C66.7 107.838 68.95 109.75 71.7 109.75H88.35C91.1 109.75 93.35 107.838 93.35 105.5ZM98.35 86.375V105.5C98.35 107.838 100.6 109.75 103.35 109.75H120C122.75 109.75 125 107.838 125 105.5V86.375C125 84.0375 122.75 82.125 120 82.125H103.35C100.55 82.125 98.35 84.0375 98.35 86.375ZM61.65 105.5V54.5C61.65 52.1625 59.4 50.25 56.65 50.25H40C37.25 50.25 35 52.1625 35 54.5V105.5C35 107.838 37.25 109.75 40 109.75H56.65C59.45 109.75 61.65 107.838 61.65 105.5Z" fill="#6661E5"/>
</svg>
